<svg xmlns="http://www.w3.org/2000/svg" version="1.1" xmlns:xlink="http://www.w3.org/1999/xlink" width="1000" height="1000"><metadata><rdf:RDF xmlns:rdf="http://www.w3.org/1999/02/22-rdf-syntax-ns#" xmlns:dc="http://purl.org/dc/elements/1.1/"><rdf:Description><dc:creator>RealFaviconGenerator</dc:creator><dc:source>https://realfavicongenerator.net</dc:source></rdf:Description></rdf:RDF></metadata><g clip-path="url(#SvgjsClipPath1039)"><rect width="1000" height="1000" fill="#ffffff"></rect><g transform="matrix(0.5833333333333334,0,0,0.5833333333333334,150,150)"><svg xmlns="http://www.w3.org/2000/svg" version="1.1" xmlns:xlink="http://www.w3.org/1999/xlink" width="1200" height="1200"><g transform="scale(13.935481127244296) translate(-6.94443787468804, -6.894438637627496)">                        <g fill="#333333"><path xmlns="http://www.w3.org/2000/svg" d="M49.2,20.5c0-2.5-1-4.8-2.7-6.5s-4-2.7-6.5-2.7c0,0,0,0,0,0c-5,0-9,4-9.2,8.9c-0.6,0.1-1.3,0.2-1.9,0.4  c-4.4,1.4-6.9,5.9-6,10.3c-1.1,0.4-2,1.1-2.6,2.1c-1,1.7-0.9,3.7,0.2,5.2c-3.4,1.3-5.9,4.7-5.9,8.6c0,1.8,0.5,3.5,1.5,5  c-2.1,1.3-3.5,3.6-3.5,6.2c0,3.2,2,5.8,4.9,6.8c-1.7,1.8-2.3,4.5-1.4,6.9c1,2.5,3.4,4.1,6,4.1c0.3,0,0.7,0,1-0.1  c0.1,1.8,0.8,3.5,2,4.8c1.5,1.7,3.5,2.7,5.8,2.9c0.2,0,0.4,0,0.6,0c0.2,0,0.5,0,0.7,0c1.4,3.2,4.5,5.3,8.1,5.3  c4.8,0,8.7-3.8,8.8-8.6c0,0,0,0,0-0.1V20.6C49.2,20.6,49.2,20.6,49.2,20.5C49.2,20.5,49.2,20.5,49.2,20.5z M40.4,86.7  c-2.6,0-4.9-1.5-6.1-3.7c3.1-1.1,5.5-3.9,5.8-7.4c0-0.6-0.4-1-0.9-1.1c-0.6,0-1,0.4-1.1,0.9c-0.3,3.6-3.4,6.2-6.9,6  c-1.7-0.1-3.3-0.9-4.4-2.2c-1.1-1.3-1.7-3-1.5-4.7c0,0,0,0,0,0c0-0.2,0-0.3-0.1-0.5c-0.2-0.5-0.8-0.8-1.3-0.6  c-2.3,0.9-4.9-0.2-5.8-2.5c-0.9-2.3,0.2-4.9,2.5-5.8c0.5-0.2,0.8-0.8,0.6-1.3c-0.2-0.4-0.6-0.6-1-0.6c-0.1,0-0.1,0-0.2,0  c-2.9,0-5.2-2.3-5.2-5.2s2.3-5.2,5.2-5.2c0.6,0,1-0.4,1-1s-0.4-1-1-1c-0.6,0-1.3,0.1-1.9,0.3c-0.9-1.2-1.4-2.7-1.4-4.2  c0-4,3.2-7.2,7.2-7.2s7.2,3.2,7.2,7.2c0,0.6,0.4,1,1,1s1-0.4,1-1c0-5.1-4.1-9.2-9.2-9.2c-0.4,0-0.8,0-1.2,0.1c0,0,0-0.1-0.1-0.1  c-1-0.9-1.2-2.4-0.5-3.6c0.8-1.4,2.6-1.9,4-1c0.5,0.3,1.1,0.1,1.4-0.4c0.3-0.5,0.1-1.1-0.4-1.4c-0.7-0.4-1.4-0.6-2.1-0.6  c-0.4-1.6-0.2-3.3,0.6-4.7c0.8-1.6,2.3-2.8,4-3.4c1.1-0.3,2.2-0.4,3.2-0.2c1.8,0.3,3.4,1.3,4.4,2.8c0.3,0.5,0.9,0.6,1.4,0.2  c0.5-0.3,0.6-0.9,0.2-1.4c-1.3-1.9-3.4-3.2-5.7-3.6c-0.1,0-0.2,0-0.3,0c0.1-3.9,3.3-7,7.2-7c0,0,0,0,0,0c1.9,0,3.7,0.8,5.1,2.1  c1.4,1.4,2.1,3.2,2.1,5.1c0,0,0,0,0,0.1c0,0,0,0.1,0,0.1v59.3C47.2,83.7,44.1,86.7,40.4,86.7z"></path><path xmlns="http://www.w3.org/2000/svg" d="M87.4,58c0-2.6-1.4-4.9-3.5-6.2c1-1.5,1.5-3.2,1.5-5c0-3.9-2.4-7.2-5.9-8.6c1-1.5,1.2-3.6,0.2-5.2c-0.6-1-1.5-1.7-2.6-2.1  c0.9-4.4-1.6-8.9-6-10.3c-0.6-0.2-1.3-0.3-1.9-0.4c-0.1-2.4-1-4.6-2.7-6.3c-1.7-1.7-4-2.7-6.5-2.7c0,0,0,0,0,0  c-5.1,0-9.2,4.1-9.2,9.2c0,0,0,0.1,0,0.1c0,0,0,0,0,0.1v59.4c0,0,0,0,0,0.1c0.1,4.8,4,8.6,8.8,8.6c3.5,0,6.7-2.1,8.1-5.3  c0.2,0,0.4,0,0.7,0c0.2,0,0.4,0,0.6,0c2.3-0.2,4.3-1.2,5.8-2.9c1.2-1.4,1.9-3.1,2-4.8c0.3,0.1,0.7,0.1,1,0.1c0.9,0,1.7-0.2,2.5-0.5  c1.6-0.7,2.8-1.9,3.5-3.5c0.6-1.6,0.6-3.4-0.1-5c-0.3-0.7-0.8-1.4-1.3-2C85.3,63.8,87.4,61.1,87.4,58z M80.1,63.2  c-0.1,0-0.1,0-0.2,0c-0.4,0-0.8,0.2-1,0.6c-0.2,0.5,0,1.1,0.6,1.3c2.3,0.9,3.4,3.5,2.5,5.8c-0.9,2.3-3.5,3.4-5.8,2.5  c-0.5-0.2-1.1,0-1.3,0.6c-0.1,0.2-0.1,0.3-0.1,0.5c0,0,0,0,0,0c0.1,1.7-0.4,3.4-1.5,4.7c-1.1,1.3-2.7,2.1-4.4,2.2  c-3.6,0.3-6.7-2.4-6.9-6c0-0.6-0.5-1-1.1-0.9c-0.6,0-1,0.5-0.9,1.1c0.3,3.5,2.6,6.3,5.8,7.4c-1.1,2.3-3.5,3.7-6.1,3.7  c-3.8,0-6.8-3.1-6.8-6.8V20.6c0,0,0-0.1,0-0.1c0,0,0,0,0-0.1c0-4,3.2-7.2,7.2-7.2c0,0,0,0,0,0c1.9,0,3.7,0.7,5.1,2.1  c1.3,1.3,2.1,3,2.1,4.9c-0.1,0-0.2,0-0.3,0c-2.3,0.4-4.4,1.7-5.7,3.6c-0.3,0.5-0.2,1.1,0.2,1.4c0.5,0.3,1.1,0.2,1.4-0.2  c1-1.5,2.7-2.5,4.4-2.8c1.1-0.2,2.2-0.1,3.2,0.2c1.7,0.6,3.2,1.8,4,3.4c0.8,1.5,1,3.1,0.6,4.7c-0.7,0.1-1.5,0.3-2.1,0.6  c-0.5,0.3-0.6,0.9-0.4,1.4c0.3,0.5,0.9,0.6,1.4,0.4c0.7-0.4,1.5-0.5,2.2-0.3c0.8,0.2,1.4,0.7,1.8,1.3c0.7,1.2,0.5,2.6-0.5,3.6  c0,0,0,0.1-0.1,0.1c-0.4-0.1-0.8-0.1-1.2-0.1c-5.1,0-9.2,4.1-9.2,9.2c0,0.6,0.4,1,1,1s1-0.4,1-1c0-4,3.2-7.2,7.2-7.2  s7.2,3.2,7.2,7.2c0,1.5-0.5,3-1.4,4.2c-0.6-0.2-1.2-0.3-1.9-0.3c-0.6,0-1,0.4-1,1s0.4,1,1,1c2.9,0,5.2,2.3,5.2,5.2  S83,63.2,80.1,63.2z"></path></g>        </g></svg></g></g><defs><clipPath id="SvgjsClipPath1039"><rect width="1000" height="1000" x="0" y="0" rx="350" ry="350"></rect></clipPath></defs></svg>