
        <svg xmlns="http://www.w3.org/2000/svg" xmlns:xlink="http://www.w3.org/1999/xlink" version="1.1" width="3189.274447949527" 
        height="1460.359160328801" viewBox="0 0 3189.274447949527 1460.359160328801">
			
			<g transform="scale(9.46372239747634) translate(10, 10)">
				<defs id="SvgjsDefs1001"></defs><g id="SvgjsG1007" featureKey="nYIUkx-0" transform="matrix(-1.2299464738837063,0,0,1.2299464738837063,107.49732604012203,-4.0670610747286915)" fill="#333333"><path xmlns="http://www.w3.org/2000/svg" d="M49.2,20.5c0-2.5-1-4.8-2.7-6.5s-4-2.7-6.5-2.7c0,0,0,0,0,0c-5,0-9,4-9.2,8.9c-0.6,0.1-1.3,0.2-1.9,0.4  c-4.4,1.4-6.9,5.9-6,10.3c-1.1,0.4-2,1.1-2.6,2.1c-1,1.7-0.9,3.7,0.2,5.2c-3.4,1.3-5.9,4.7-5.9,8.6c0,1.8,0.5,3.5,1.5,5  c-2.1,1.3-3.5,3.6-3.5,6.2c0,3.2,2,5.8,4.9,6.8c-1.7,1.8-2.3,4.5-1.4,6.9c1,2.5,3.4,4.1,6,4.1c0.3,0,0.7,0,1-0.1  c0.1,1.8,0.8,3.5,2,4.8c1.5,1.7,3.5,2.7,5.8,2.9c0.2,0,0.4,0,0.6,0c0.2,0,0.5,0,0.7,0c1.4,3.2,4.5,5.3,8.1,5.3  c4.8,0,8.7-3.8,8.8-8.6c0,0,0,0,0-0.1V20.6C49.2,20.6,49.2,20.6,49.2,20.5C49.2,20.5,49.2,20.5,49.2,20.5z M40.4,86.7  c-2.6,0-4.9-1.5-6.1-3.7c3.1-1.1,5.5-3.9,5.8-7.4c0-0.6-0.4-1-0.9-1.1c-0.6,0-1,0.4-1.1,0.9c-0.3,3.6-3.4,6.2-6.9,6  c-1.7-0.1-3.3-0.9-4.4-2.2c-1.1-1.3-1.7-3-1.5-4.7c0,0,0,0,0,0c0-0.2,0-0.3-0.1-0.5c-0.2-0.5-0.8-0.8-1.3-0.6  c-2.3,0.9-4.9-0.2-5.8-2.5c-0.9-2.3,0.2-4.9,2.5-5.8c0.5-0.2,0.8-0.8,0.6-1.3c-0.2-0.4-0.6-0.6-1-0.6c-0.1,0-0.1,0-0.2,0  c-2.9,0-5.2-2.3-5.2-5.2s2.3-5.2,5.2-5.2c0.6,0,1-0.4,1-1s-0.4-1-1-1c-0.6,0-1.3,0.1-1.9,0.3c-0.9-1.2-1.4-2.7-1.4-4.2  c0-4,3.2-7.2,7.2-7.2s7.2,3.2,7.2,7.2c0,0.6,0.4,1,1,1s1-0.4,1-1c0-5.1-4.1-9.2-9.2-9.2c-0.4,0-0.8,0-1.2,0.1c0,0,0-0.1-0.1-0.1  c-1-0.9-1.2-2.4-0.5-3.6c0.8-1.4,2.6-1.9,4-1c0.5,0.3,1.1,0.1,1.4-0.4c0.3-0.5,0.1-1.1-0.4-1.4c-0.7-0.4-1.4-0.6-2.1-0.6  c-0.4-1.6-0.2-3.3,0.6-4.7c0.8-1.6,2.3-2.8,4-3.4c1.1-0.3,2.2-0.4,3.2-0.2c1.8,0.3,3.4,1.3,4.4,2.8c0.3,0.5,0.9,0.6,1.4,0.2  c0.5-0.3,0.6-0.9,0.2-1.4c-1.3-1.9-3.4-3.2-5.7-3.6c-0.1,0-0.2,0-0.3,0c0.1-3.9,3.3-7,7.2-7c0,0,0,0,0,0c1.9,0,3.7,0.8,5.1,2.1  c1.4,1.4,2.1,3.2,2.1,5.1c0,0,0,0,0,0.1c0,0,0,0.1,0,0.1v59.3C47.2,83.7,44.1,86.7,40.4,86.7z"></path><path xmlns="http://www.w3.org/2000/svg" d="M87.4,58c0-2.6-1.4-4.9-3.5-6.2c1-1.5,1.5-3.2,1.5-5c0-3.9-2.4-7.2-5.9-8.6c1-1.5,1.2-3.6,0.2-5.2c-0.6-1-1.5-1.7-2.6-2.1  c0.9-4.4-1.6-8.9-6-10.3c-0.6-0.2-1.3-0.3-1.9-0.4c-0.1-2.4-1-4.6-2.7-6.3c-1.7-1.7-4-2.7-6.5-2.7c0,0,0,0,0,0  c-5.1,0-9.2,4.1-9.2,9.2c0,0,0,0.1,0,0.1c0,0,0,0,0,0.1v59.4c0,0,0,0,0,0.1c0.1,4.8,4,8.6,8.8,8.6c3.5,0,6.7-2.1,8.1-5.3  c0.2,0,0.4,0,0.7,0c0.2,0,0.4,0,0.6,0c2.3-0.2,4.3-1.2,5.8-2.9c1.2-1.4,1.9-3.1,2-4.8c0.3,0.1,0.7,0.1,1,0.1c0.9,0,1.7-0.2,2.5-0.5  c1.6-0.7,2.8-1.9,3.5-3.5c0.6-1.6,0.6-3.4-0.1-5c-0.3-0.7-0.8-1.4-1.3-2C85.3,63.8,87.4,61.1,87.4,58z M80.1,63.2  c-0.1,0-0.1,0-0.2,0c-0.4,0-0.8,0.2-1,0.6c-0.2,0.5,0,1.1,0.6,1.3c2.3,0.9,3.4,3.5,2.5,5.8c-0.9,2.3-3.5,3.4-5.8,2.5  c-0.5-0.2-1.1,0-1.3,0.6c-0.1,0.2-0.1,0.3-0.1,0.5c0,0,0,0,0,0c0.1,1.7-0.4,3.4-1.5,4.7c-1.1,1.3-2.7,2.1-4.4,2.2  c-3.6,0.3-6.7-2.4-6.9-6c0-0.6-0.5-1-1.1-0.9c-0.6,0-1,0.5-0.9,1.1c0.3,3.5,2.6,6.3,5.8,7.4c-1.1,2.3-3.5,3.7-6.1,3.7  c-3.8,0-6.8-3.1-6.8-6.8V20.6c0,0,0-0.1,0-0.1c0,0,0,0,0-0.1c0-4,3.2-7.2,7.2-7.2c0,0,0,0,0,0c1.9,0,3.7,0.7,5.1,2.1  c1.3,1.3,2.1,3,2.1,4.9c-0.1,0-0.2,0-0.3,0c-2.3,0.4-4.4,1.7-5.7,3.6c-0.3,0.5-0.2,1.1,0.2,1.4c0.5,0.3,1.1,0.2,1.4-0.2  c1-1.5,2.7-2.5,4.4-2.8c1.1-0.2,2.2-0.1,3.2,0.2c1.7,0.6,3.2,1.8,4,3.4c0.8,1.5,1,3.1,0.6,4.7c-0.7,0.1-1.5,0.3-2.1,0.6  c-0.5,0.3-0.6,0.9-0.4,1.4c0.3,0.5,0.9,0.6,1.4,0.4c0.7-0.4,1.5-0.5,2.2-0.3c0.8,0.2,1.4,0.7,1.8,1.3c0.7,1.2,0.5,2.6-0.5,3.6  c0,0,0,0.1-0.1,0.1c-0.4-0.1-0.8-0.1-1.2-0.1c-5.1,0-9.2,4.1-9.2,9.2c0,0.6,0.4,1,1,1s1-0.4,1-1c0-4,3.2-7.2,7.2-7.2  s7.2,3.2,7.2,7.2c0,1.5-0.5,3-1.4,4.2c-0.6-0.2-1.2-0.3-1.9-0.3c-0.6,0-1,0.4-1,1s0.4,1,1,1c2.9,0,5.2,2.3,5.2,5.2  S83,63.2,80.1,63.2z"></path></g><g id="SvgjsG1008" featureKey="PXhRQw-0" transform="matrix(5.296609869841648,0,0,5.296609869841648,113.82204089727009,-13.432202448073749)" fill="#f7f6f3"><path d="M0.6 20 l0 -2.24 l0.42 -0.28 l0 -8.96 l-0.42 -0.28 l0 -2.24 l3.1 0 l2.08 5.3 l2.08 -5.3 l3.1 0 l0 2.24 l-0.42 0.28 l0 8.96 l0.42 0.28 l0 2.24 l-3.36 0 l0 -2.24 l0.42 -0.28 l0 -4.98 l-1.24 3.16 l-2 0 l-1.24 -3.16 l0 4.98 l0.42 0.28 l0 2.24 l-3.36 0 z M14.02 20 l-1.86 -1.86 l0 -10.28 l1.86 -1.86 l4.54 0 l1.86 1.86 l0 10.28 l-1.86 1.86 l-4.54 0 z M15.06 17.48 l2.46 0 l0.38 -0.38 l0 -8.2 l-0.38 -0.38 l-2.46 0 l-0.38 0.38 l0 8.2 z M14.96 5.44 l0.7 -1.96 l1.96 0 l-1.26 1.96 l-1.4 0 z M21.62 20 l0 -1.96 l4.38 -9.52 l-1.58 0 l-0.28 0.42 l-2.24 0 l0 -2.94 l7.14 0 l0 1.96 l-4.38 9.52 l1.86 0 l0.28 -0.42 l2.24 0 l0 2.94 l-7.42 0 z M32.1 20 l-1.86 -1.86 l0 -10.28 l1.86 -1.86 l4.4 0 l1.86 1.86 l0 2.62 l-2.52 0 l0 -1.58 l-0.38 -0.38 l-2.32 0 l-0.38 0.38 l0 8.2 l0.38 0.38 l2.32 0 l0.38 -0.38 l0 -2.84 l-0.84 0 l-0.42 -0.28 l0 -2.24 l3.78 0 l0 6.4 l-1.86 1.86 l-4.4 0 z"></path></g><g id="SvgjsG1009" featureKey="mlRtrp-0" transform="matrix(1.4007780645727248,0,0,1.4007780645727248,144.15953262690195,106.29572331662214)" fill="#333333"><path d="M3.5 8.04 l0 5 l1.42 0 c0.18666 0 0.28 -0.1 0.28 -0.3 l0 -4.4 c0 -0.2 -0.09334 -0.3 -0.28 -0.3 l-1.42 0 z M8.06 14.1 c0 0.32 -0.11 0.61334 -0.33 0.88 s-0.54334 0.4 -0.97 0.4 l1.52 4.62 l-3 0 l-1.4 -4.62 l-0.38 0 l0 4.62 l-2.9 0 l0 -14.5 l5.5 0 c0.68 0 1.17666 0.17 1.49 0.51 s0.47 0.79666 0.47 1.37 l0 6.72 z M18.78 8.04 c-0.17334 0 -0.26 0.09334 -0.26 0.28 l0 8.84 c0 0.10666 0.01666 0.18332 0.05 0.22998 s0.11 0.07 0.23 0.07 l1.1 0 c0.12 0 0.19666 -0.02334 0.23 -0.07 s0.05 -0.12332 0.05 -0.22998 l0 -8.84 c0 -0.18666 -0.08666 -0.28 -0.26 -0.28 l-1.14 0 z M23.12 17.94 c0 0.28 -0.03334 0.54334 -0.1 0.79 s-0.18 0.46332 -0.34 0.64998 s-0.37334 0.33666 -0.64 0.45 s-0.6 0.17 -1 0.17 l-3.36 0 c-0.4 0 -0.73334 -0.05666 -1 -0.17 s-0.48 -0.26334 -0.64 -0.45 s-0.27334 -0.40332 -0.34 -0.64998 s-0.1 -0.51 -0.1 -0.79 l0 -10.56 c0 -0.57334 0.15666 -1.03 0.47 -1.37 s0.81 -0.51 1.49 -0.51 l3.6 0 c0.68 0 1.17666 0.17 1.49 0.51 s0.47 0.79666 0.47 1.37 l0 10.56 z M34.02 17.3 l2.72 0 l-0.5 2.7 l-6.12 0 l3.26 -11.8 l-3.02 0 l0.5 -2.7 l6.28 0 z M47.06 13.16 l0 6.84 l-2.82 0 l0 -14.5 l3.06 0 l1.58 6.12 l1.58 -6.12 l3.08 0 l0 14.5 l-2.82 0 l0 -6.84 l-1.84 5.8 z M64.22 8.04 c-0.17334 0 -0.26 0.09334 -0.26 0.28 l0 8.84 c0 0.10666 0.01666 0.18332 0.05 0.22998 s0.11 0.07 0.23 0.07 l1.1 0 c0.12 0 0.19666 -0.02334 0.23 -0.07 s0.05 -0.12332 0.05 -0.22998 l0 -8.84 c0 -0.18666 -0.08666 -0.28 -0.26 -0.28 l-1.14 0 z M68.56 17.94 c0 0.28 -0.03334 0.54334 -0.1 0.79 s-0.18 0.46332 -0.34 0.64998 s-0.37334 0.33666 -0.64 0.45 s-0.6 0.17 -1 0.17 l-3.36 0 c-0.4 0 -0.73334 -0.05666 -1 -0.17 s-0.48 -0.26334 -0.64 -0.45 s-0.27334 -0.40332 -0.34 -0.64998 s-0.1 -0.51 -0.1 -0.79 l0 -10.56 c0 -0.57334 0.15666 -1.03 0.47 -1.37 s0.81 -0.51 1.49 -0.51 l3.6 0 c0.68 0 1.17666 0.17 1.49 0.51 s0.47 0.79666 0.47 1.37 l0 10.56 z M84.92 5.5 l2.96 0 l-2.28 14.5 l-2.64 0 l-1.2 -7.56 l-1.18 7.56 l-2.64 0 l-2.28 -14.5 l2.96 0 l0.92 8.44 l1.18 -8.44 l2.1 0 l1.16 8.44 z M100.62 20 l-3.06 0 l0 -3.68 l-2.78 -10.82 l3 0 l1.3 6.84 l1.32 -6.84 l3 0 l-2.78 10.82 l0 3.68 z"></path></g>
			</g>
		</svg>
	